
  <svg width="441.75" height="48" viewBox="0 0 2356 256" fill="none" xmlns="http://www.w3.org/2000/svg" xmlns:xlink="http://www.w3.org/1999/xlink" version="1.1">
    
        <g transform="translate(0, 0)">
          <svg xmlns="http://www.w3.org/2000/svg" width="256" height="256" fill="none" viewBox="0 0 256 256"><rect width="256" height="256" fill="#512BD4" rx="60"/><path fill="#fff" d="M24.0522 168.943C21.8155 168.943 19.9143 168.212 18.3486 166.749C16.7829 165.248 16 163.466 16 161.402C16 159.301 16.7829 157.5 18.3486 155.999C19.9143 154.499 21.8155 153.748 24.0522 153.748C26.3262 153.748 28.246 154.499 29.8118 155.999C31.4147 157.5 32.2162 159.301 32.2162 161.402C32.2162 163.466 31.4147 165.248 29.8118 166.749C28.246 168.212 26.3262 168.943 24.0522 168.943Z"/><path fill="#fff" d="M113.467 167.705H98.9285L60.625 108.387C59.6558 106.886 58.8539 105.328 58.2205 103.715H57.8848C58.1831 105.441 58.3322 109.137 58.3322 114.802V167.705H45.4707V87H60.96L97.9781 144.912C99.5439 147.314 100.55 148.964 100.998 149.865H101.221C100.849 147.726 100.662 144.106 100.662 139.002V87H113.467V167.705Z"/><path fill="#fff" d="M176.098 167.705H131.084V87H174.309V98.3688H144.393V121.218H171.961V132.53H144.393V156.393H176.098V167.705Z"/><path fill="#fff" d="M240.071 98.3688H217.033V167.705H203.724V98.3688H180.742V87H240.071V98.3688Z"/></svg>
        </g>
         
        <g transform="translate(300, 0)">
          <svg xmlns="http://www.w3.org/2000/svg" width="256" height="256" fill="none" viewBox="0 0 256 256"><rect width="256" height="256" fill="#242938" rx="60"/><path fill="#fff" d="M84.7447 111.961C84.7447 114.395 85.0079 116.368 85.4684 117.816C85.9947 119.263 86.6526 120.842 87.5737 122.553C87.9026 123.079 88.0342 123.605 88.0342 124.066C88.0342 124.724 87.6395 125.382 86.7842 126.039L82.6395 128.803C82.0474 129.197 81.4553 129.395 80.929 129.395C80.2711 129.395 79.6132 129.066 78.9553 128.474C78.0342 127.487 77.2447 126.434 76.5869 125.382C75.929 124.263 75.2711 123.013 74.5474 121.5C69.4158 127.553 62.9684 130.579 55.2053 130.579C49.679 130.579 45.2711 129 42.0474 125.842C38.8237 122.684 37.179 118.474 37.179 113.211C37.179 107.618 39.1526 103.079 43.1658 99.6579C47.179 96.2368 52.5079 94.5263 59.2842 94.5263C61.5211 94.5263 63.8237 94.7237 66.2579 95.0526C68.6921 95.3816 71.1921 95.9079 73.8237 96.5V91.6974C73.8237 86.6974 72.7711 83.2105 70.7316 81.1711C68.6263 79.1316 65.0737 78.1447 60.0079 78.1447C57.7053 78.1447 55.3368 78.4079 52.9026 79C50.4684 79.5921 48.1 80.3158 45.7974 81.2368C44.7447 81.6974 43.9553 81.9605 43.4947 82.0921C43.0342 82.2237 42.7053 82.2895 42.4421 82.2895C41.5211 82.2895 41.0605 81.6316 41.0605 80.25V77.0263C41.0605 75.9737 41.1921 75.1842 41.5211 74.7237C41.85 74.2632 42.4421 73.8026 43.3632 73.3421C45.6658 72.1579 48.429 71.1711 51.6526 70.3816C54.8763 69.5263 58.2974 69.1316 61.9158 69.1316C69.7447 69.1316 75.4684 70.9079 79.1526 74.4605C82.7711 78.0132 84.6132 83.4079 84.6132 90.6447V111.961H84.7447ZM58.0342 121.961C60.2053 121.961 62.4421 121.566 64.8105 120.776C67.179 119.987 69.2842 118.539 71.0605 116.566C72.1132 115.316 72.9026 113.934 73.2974 112.355C73.6921 110.776 73.9553 108.868 73.9553 106.632V103.868C72.0474 103.408 70.0079 103.013 67.9026 102.75C65.7974 102.487 63.7579 102.355 61.7184 102.355C57.3105 102.355 54.0868 103.211 51.9158 104.987C49.7447 106.763 48.6921 109.263 48.6921 112.553C48.6921 115.645 49.4816 117.947 51.1263 119.526C52.7053 121.171 55.0079 121.961 58.0342 121.961ZM110.863 129.066C109.679 129.066 108.889 128.868 108.363 128.408C107.837 128.013 107.376 127.092 106.982 125.842L91.5211 74.9868C91.1263 73.6711 90.929 72.8158 90.929 72.3553C90.929 71.3026 91.4553 70.7105 92.5079 70.7105H98.9553C100.205 70.7105 101.061 70.9079 101.521 71.3684C102.047 71.7632 102.442 72.6842 102.837 73.9342L113.889 117.487L124.153 73.9342C124.482 72.6184 124.876 71.7632 125.403 71.3684C125.929 70.9737 126.85 70.7105 128.034 70.7105H133.297C134.547 70.7105 135.403 70.9079 135.929 71.3684C136.455 71.7632 136.916 72.6842 137.179 73.9342L147.574 118.013L158.955 73.9342C159.35 72.6184 159.811 71.7632 160.271 71.3684C160.797 70.9737 161.653 70.7105 162.837 70.7105H168.955C170.008 70.7105 170.6 71.2368 170.6 72.3553C170.6 72.6842 170.534 73.0132 170.468 73.4079C170.403 73.8026 170.271 74.3289 170.008 75.0526L154.153 125.908C153.758 127.224 153.297 128.079 152.771 128.474C152.245 128.868 151.389 129.132 150.271 129.132H144.613C143.363 129.132 142.508 128.934 141.982 128.474C141.455 128.013 140.995 127.158 140.732 125.842L130.534 83.4079L120.403 125.776C120.074 127.092 119.679 127.947 119.153 128.408C118.626 128.868 117.705 129.066 116.521 129.066H110.863ZM195.403 130.842C191.982 130.842 188.561 130.447 185.271 129.658C181.982 128.868 179.416 128.013 177.705 127.026C176.653 126.434 175.929 125.776 175.666 125.184C175.403 124.592 175.271 123.934 175.271 123.342V119.987C175.271 118.605 175.797 117.947 176.784 117.947C177.179 117.947 177.574 118.013 177.968 118.145C178.363 118.276 178.955 118.539 179.613 118.803C181.85 119.789 184.284 120.579 186.85 121.105C189.482 121.632 192.047 121.895 194.679 121.895C198.824 121.895 202.047 121.171 204.284 119.724C206.521 118.276 207.705 116.171 207.705 113.474C207.705 111.632 207.113 110.118 205.929 108.868C204.745 107.618 202.508 106.5 199.284 105.447L189.745 102.487C184.942 100.974 181.389 98.7368 179.218 95.7763C177.047 92.8816 175.929 89.6579 175.929 86.2368C175.929 83.4737 176.521 81.0395 177.705 78.9342C178.889 76.8289 180.468 74.9868 182.442 73.5395C184.416 72.0263 186.653 70.9079 189.284 70.1184C191.916 69.3289 194.679 69 197.574 69C199.021 69 200.534 69.0658 201.982 69.2632C203.495 69.4605 204.876 69.7237 206.258 69.9868C207.574 70.3158 208.824 70.6447 210.008 71.0395C211.192 71.4342 212.113 71.8289 212.771 72.2237C213.692 72.75 214.35 73.2763 214.745 73.8684C215.139 74.3947 215.337 75.1184 215.337 76.0395V79.1316C215.337 80.5132 214.811 81.2368 213.824 81.2368C213.297 81.2368 212.442 80.9737 211.324 80.4474C207.574 78.7368 203.363 77.8816 198.692 77.8816C194.942 77.8816 191.982 78.4737 189.942 79.7237C187.903 80.9737 186.85 82.8816 186.85 85.5789C186.85 87.4211 187.508 89 188.824 90.25C190.139 91.5 192.574 92.75 196.061 93.8684L205.403 96.8289C210.139 98.3421 213.561 100.447 215.6 103.145C217.639 105.842 218.626 108.934 218.626 112.355C218.626 115.184 218.034 117.75 216.916 119.987C215.732 122.224 214.153 124.197 212.113 125.776C210.074 127.421 207.639 128.605 204.811 129.461C201.85 130.382 198.758 130.842 195.403 130.842Z"/><path fill="#F90" fill-rule="evenodd" d="M207.837 162.816C186.192 178.803 154.745 187.29 127.705 187.29C89.8105 187.29 55.6658 173.276 29.8763 149.987C27.8369 148.145 29.679 145.645 32.1132 147.092C60.0079 163.276 94.4158 173.079 130.008 173.079C154.021 173.079 180.403 168.079 204.679 157.816C208.297 156.171 211.389 160.184 207.837 162.816Z" clip-rule="evenodd"/><path fill="#F90" fill-rule="evenodd" d="M216.85 152.553C214.087 149 198.561 150.842 191.521 151.697C189.416 151.961 189.087 150.118 190.995 148.737C203.363 140.053 223.692 142.553 226.061 145.447C228.429 148.408 225.403 168.737 213.824 178.474C212.047 179.987 210.337 179.197 211.126 177.224C213.758 170.711 219.613 156.039 216.85 152.553Z" clip-rule="evenodd"/></svg>
        </g>
         
        <g transform="translate(600, 0)">
          <svg xmlns="http://www.w3.org/2000/svg" width="256" height="256" fill="none" viewBox="0 0 256 256"><rect width="256" height="256" fill="#242938" rx="60"/><path fill="url(#paint0_linear_159_730)" d="M94.6743 34.0023H153.856L92.4196 216.032C91.7882 217.902 90.586 219.528 88.9824 220.679C87.3788 221.831 85.4545 222.45 83.4803 222.451H37.4223C35.9265 222.451 34.4522 222.095 33.1213 221.412C31.7904 220.729 30.6411 219.74 29.7687 218.525C28.8962 217.31 28.3256 215.905 28.104 214.425C27.8824 212.946 28.0162 211.435 28.4943 210.018L85.7327 40.4209C86.3639 38.5497 87.5662 36.9236 89.1703 35.7717C90.7744 34.6198 92.6995 34.0001 94.6743 34V34.0023Z"/><path fill="#0078D4" d="M180.674 156.095H86.8261C85.9536 156.094 85.101 156.356 84.3795 156.847C83.6579 157.337 83.1008 158.034 82.7807 158.845C82.4606 159.657 82.3923 160.546 82.5848 161.397C82.7773 162.248 83.2217 163.022 83.86 163.616L144.165 219.903C145.92 221.54 148.232 222.451 150.633 222.451H203.774L180.674 156.095Z"/><path fill="url(#paint1_linear_159_730)" d="M94.6745 34.0023C92.6781 33.9946 90.7315 34.6255 89.1192 35.8028C87.5068 36.98 86.3131 38.642 85.7125 40.5459L28.5649 209.863C28.0546 211.286 27.8944 212.81 28.0979 214.308C28.3013 215.805 28.8624 217.232 29.7337 218.466C30.6051 219.701 31.7609 220.708 33.1036 221.401C34.4463 222.095 35.9362 222.455 37.4474 222.451H84.6942C86.4539 222.136 88.0986 221.36 89.4603 220.202C90.822 219.044 91.8519 217.546 92.4448 215.859L103.841 182.273L144.549 220.241C146.255 221.652 148.395 222.433 150.608 222.451H203.551L180.331 156.096L112.642 156.112L154.07 34.0023H94.6745Z"/><path fill="url(#paint2_linear_159_730)" d="M170.264 40.4118C169.634 38.5435 168.434 36.9201 166.832 35.7702C165.23 34.6204 163.308 34.002 161.336 34.0022H95.3792C97.3508 34.0023 99.2727 34.6208 100.874 35.7707C102.476 36.9205 103.677 38.5437 104.307 40.4118L161.548 210.016C162.026 211.433 162.16 212.944 161.939 214.424C161.718 215.904 161.147 217.309 160.275 218.525C159.402 219.74 158.253 220.73 156.922 221.413C155.591 222.096 154.116 222.453 152.62 222.453H218.579C220.075 222.452 221.55 222.096 222.88 221.413C224.211 220.729 225.36 219.739 226.233 218.524C227.105 217.308 227.675 215.903 227.896 214.423C228.118 212.944 227.984 211.433 227.505 210.016L170.264 40.4118Z"/><defs><linearGradient id="paint0_linear_159_730" x1="116.244" x2="54.783" y1="47.967" y2="229.54" gradientUnits="userSpaceOnUse"><stop stop-color="#114A8B"/><stop offset="1" stop-color="#0669BC"/></linearGradient><linearGradient id="paint1_linear_159_730" x1="135.444" x2="121.227" y1="132.585" y2="137.392" gradientUnits="userSpaceOnUse"><stop stop-opacity=".3"/><stop offset=".071" stop-opacity=".2"/><stop offset=".321" stop-opacity=".1"/><stop offset=".623" stop-opacity=".05"/><stop offset="1" stop-opacity="0"/></linearGradient><linearGradient id="paint2_linear_159_730" x1="127.625" x2="195.091" y1="42.671" y2="222.414" gradientUnits="userSpaceOnUse"><stop stop-color="#3CCBF4"/><stop offset="1" stop-color="#2892DF"/></linearGradient></defs></svg>
        </g>
         
        <g transform="translate(900, 0)">
          <svg xmlns="http://www.w3.org/2000/svg" width="256" height="256" fill="none" viewBox="0 0 256 256"><rect width="256" height="256" fill="#242938" rx="60"/><g clip-path="url(#clip0_7_147)"><path fill="#fff" fill-rule="evenodd" d="M203.801 178.21C194.011 177.938 186.416 178.941 180.051 181.619C178.218 182.355 175.277 182.355 175.035 184.662C176.015 185.63 176.133 187.214 176.992 188.556C178.459 190.991 181.033 194.271 183.357 195.973L191.191 201.571C195.965 204.488 201.351 206.193 206.002 209.113C208.696 210.817 211.388 213.007 214.082 214.834C215.454 215.807 216.285 217.392 218 217.997V217.629C217.144 216.538 216.897 214.957 216.044 213.735L212.367 210.209C208.82 205.465 204.41 201.325 199.636 197.922C195.718 195.245 187.152 191.596 185.56 187.097L185.319 186.824C188.008 186.552 191.191 185.605 193.764 184.875C197.929 183.784 201.721 184.024 206.002 182.93L211.882 181.226V180.135C209.678 177.946 208.087 175.025 205.763 172.959C199.521 167.606 192.661 162.373 185.56 157.994C181.766 155.562 176.868 153.977 172.829 151.913C171.356 151.182 168.911 150.817 168.055 149.601C165.846 146.929 164.625 143.397 163.034 140.232L152.997 119.064C150.794 114.319 149.444 109.574 146.755 105.195C134.144 84.5124 120.431 71.9828 99.375 59.6932C94.8477 57.1382 89.4616 56.0393 83.7353 54.7032L74.5546 54.2124C72.5928 53.3616 70.6364 51.0493 68.9216 49.9531C61.9441 45.5739 43.9475 36.0847 38.8029 48.5897C35.4966 56.4974 43.7006 64.2824 46.4855 68.299C48.5708 71.0966 51.2597 74.2597 52.7332 77.4228C53.5563 79.4897 53.8307 81.682 54.6895 83.8717C56.6458 89.2243 58.4842 95.1878 61.0551 100.178C62.427 102.733 63.8675 105.413 65.5824 107.723C66.5619 109.086 68.2768 109.67 68.6417 111.859C66.9268 114.294 66.8089 117.94 65.8293 120.986C61.42 134.734 63.1349 151.766 69.377 161.888C71.3389 164.928 75.9622 171.622 82.2345 169.065C87.744 166.875 86.5148 159.941 88.1062 153.857C88.4766 152.399 88.2297 151.425 88.9623 150.449V150.722L93.9834 160.819C97.7781 166.78 104.391 172.986 109.897 177.125C112.833 179.315 115.16 183.089 118.831 184.425V184.057H118.59C117.854 182.966 116.751 182.475 115.772 181.624C113.569 179.435 111.121 176.757 109.406 174.325C104.267 167.513 99.7399 159.968 95.6983 152.183C93.7365 148.412 92.0216 144.275 90.4357 140.504C89.6949 139.043 89.6949 136.85 88.4739 136.125C86.6355 138.797 83.9466 141.115 82.5939 144.398C80.2672 149.628 80.0257 156.077 79.1697 162.769C78.6758 162.891 78.8953 162.769 78.6758 163.041C74.7631 162.071 73.4132 158.051 71.9453 154.648C68.274 146.01 67.6594 132.141 70.8422 122.164C71.6983 119.609 75.375 111.579 73.9071 109.146C73.1662 106.834 70.7242 105.498 69.3743 103.671C67.7829 101.359 66.0735 98.4409 64.9705 95.8859C62.0346 89.0689 60.5667 81.5293 57.3812 74.7151C55.9077 71.552 53.3396 68.2662 51.257 65.3486C48.9303 62.0628 46.3648 59.7505 44.5265 55.8593C43.9146 54.4959 43.0585 52.3309 44.0381 50.8693C44.2795 49.8959 44.7734 49.5059 45.7475 49.2878C47.3389 47.9244 51.8716 49.6532 53.463 50.3785C57.9903 52.2054 61.7849 53.907 65.5796 56.4592C67.2945 57.6754 69.1329 59.9877 71.3361 60.5985H73.9098C77.8279 61.4493 82.2317 60.8712 85.9002 61.9619C92.3893 64.0343 98.2637 67.0719 103.532 70.3604C119.567 80.4577 132.792 94.8143 141.725 111.971C143.193 114.769 143.805 117.324 145.155 120.244C147.729 126.208 150.912 132.289 153.477 138.132C156.051 143.85 158.498 149.694 162.17 154.438C164.008 156.993 171.35 158.329 174.654 159.668C177.104 160.759 180.896 161.741 183.105 163.077C187.264 165.632 191.427 168.552 195.342 171.35C197.298 172.806 203.423 175.849 203.787 178.276L203.801 178.21ZM78.9584 72.4873C77.267 72.4724 75.5809 72.6769 73.9427 73.0954V73.3681H74.1842C75.1637 75.315 76.8786 76.6538 78.1023 78.3581L80.9202 84.1989L81.1616 83.9262C82.8765 82.71 83.7353 80.7631 83.7353 77.8454C83 76.9947 82.8793 76.1412 82.2674 75.2904C81.5321 74.0743 79.9407 73.4635 78.9584 72.4928V72.4873Z" clip-rule="evenodd"/></g><defs><clipPath id="clip0_7_147"><rect width="180" height="180" fill="#fff" transform="translate(38 38)"/></clipPath></defs></svg>
        </g>
         
        <g transform="translate(1200, 0)">
          <svg width="256" height="256" viewBox="0 0 256 256" fill="none" xmlns="http://www.w3.org/2000/svg">
<rect width="256" height="256" rx="60" fill="#A9CBD4"/>
<g clip-path="url(#clip0_702_141)">
<path d="M162.998 138.677C155.218 138.677 148.244 142.124 143.468 147.55L131.23 138.886C132.529 135.31 133.275 131.469 133.275 127.449C133.275 123.499 132.555 119.722 131.299 116.199L143.509 107.627C148.285 113.025 155.241 116.453 162.998 116.453C177.356 116.453 189.04 104.772 189.04 90.4111C189.04 76.0505 177.356 64.3689 162.998 64.3689C148.639 64.3689 136.956 76.0505 136.956 90.4111C136.956 92.9814 137.344 95.46 138.041 97.8074L125.822 106.384C120.718 100.051 113.368 95.6302 104.995 94.2806V79.5542C116.791 77.0766 125.68 66.5956 125.68 54.072C125.68 39.7114 113.996 28.0298 99.6375 28.0298C85.2788 28.0298 73.5953 39.7114 73.5953 54.072C73.5953 66.4279 82.2533 76.7796 93.8138 79.4341V94.3517C78.0368 97.1211 66 110.89 66 127.449C66 144.089 78.156 157.908 94.0469 160.583V176.335C82.3682 178.902 73.5953 189.317 73.5953 201.757C73.5953 216.118 85.2788 227.8 99.6375 227.8C113.996 227.8 125.68 216.118 125.68 201.757C125.68 189.317 116.907 178.902 105.228 176.335V160.583C113.271 159.228 120.548 154.996 125.703 148.675L138.023 157.395C137.339 159.721 136.956 162.175 136.956 164.72C136.956 179.08 148.639 190.762 162.998 190.762C177.356 190.762 189.04 179.08 189.04 164.72C189.04 150.359 177.356 138.677 162.998 138.677ZM162.998 77.7846C169.961 77.7846 175.624 83.4502 175.624 90.4111C175.624 97.372 169.961 103.037 162.998 103.037C156.035 103.037 150.372 97.372 150.372 90.4111C150.372 83.4502 156.035 77.7846 162.998 77.7846ZM87.011 54.072C87.011 47.1111 92.6747 41.446 99.6375 41.446C106.6 41.446 112.264 47.1111 112.264 54.072C112.264 61.0329 106.6 66.698 99.6375 66.698C92.6747 66.698 87.011 61.0329 87.011 54.072ZM112.264 201.757C112.264 208.718 106.6 214.383 99.6375 214.383C92.6747 214.383 87.011 208.718 87.011 201.757C87.011 194.797 92.6747 189.131 99.6375 189.131C106.6 189.131 112.264 194.797 112.264 201.757ZM99.6365 145.058C89.9255 145.058 82.0255 137.16 82.0255 127.449C82.0255 117.738 89.9255 109.838 99.6365 109.838C109.347 109.838 117.247 117.738 117.247 127.449C117.247 137.16 109.347 145.058 99.6365 145.058ZM162.998 177.346C156.035 177.346 150.372 171.68 150.372 164.72C150.372 157.759 156.035 152.094 162.998 152.094C169.961 152.094 175.624 157.759 175.624 164.72C175.624 171.68 169.961 177.346 162.998 177.346Z" fill="black"/>
</g>
<defs>
<clipPath id="clip0_702_141">
<rect width="123.04" height="200" fill="white" transform="translate(66 28)"/>
</clipPath>
</defs>
</svg>

        </g>
         
        <g transform="translate(1500, 0)">
          <svg xmlns="http://www.w3.org/2000/svg" width="256" height="256" fill="none" viewBox="0 0 256 256"><rect width="256" height="256" fill="#007ACC" rx="60"/><path fill="#fff" d="M56.6112 128.849L56.5299 139.333H73.1902H89.8505L89.8505 186.673V234.012H101.635H113.419V186.673L113.419 139.333H130.079H146.739V129.052C146.739 123.363 146.618 118.609 146.455 118.487C146.333 118.325 126.056 118.243 101.472 118.284L56.7331 118.406L56.6112 128.849Z"/><path fill="#fff" d="M206.567 118.108C213.068 119.734 218.026 122.619 222.577 127.332C224.934 129.852 228.428 134.444 228.713 135.541C228.794 135.866 217.66 143.343 210.915 147.528C210.671 147.691 209.695 146.634 208.598 145.009C205.307 140.214 201.853 138.141 196.57 137.776C188.809 137.247 183.811 141.311 183.852 148.097C183.852 150.088 184.136 151.266 184.949 152.892C186.655 156.427 189.825 158.54 199.781 162.847C218.107 170.731 225.949 175.932 230.826 183.327C236.271 191.576 237.49 204.742 233.792 214.535C229.729 225.181 219.651 232.414 205.469 234.812C201.081 235.584 190.678 235.462 185.965 234.609C175.684 232.78 165.932 227.701 159.918 221.037C157.561 218.436 152.969 211.65 153.254 211.162C153.375 211 154.432 210.35 155.61 209.659C156.748 209.009 161.056 206.53 165.119 204.173L172.474 199.906L174.018 202.182C176.172 205.473 180.885 209.984 183.73 211.487C191.897 215.795 203.113 215.185 208.639 210.228C210.996 208.074 211.971 205.839 211.971 202.548C211.971 199.581 211.605 198.281 210.061 196.046C208.07 193.202 204.007 190.804 192.466 185.806C179.26 180.117 173.571 176.582 168.37 170.974C165.363 167.724 162.518 162.522 161.34 158.174C160.365 154.558 160.121 145.496 160.893 141.839C163.615 129.08 173.246 120.181 187.143 117.539C191.654 116.686 202.137 117.011 206.567 118.108Z"/></svg>
        </g>
         
        <g transform="translate(1800, 0)">
          <svg xmlns="http://www.w3.org/2000/svg" width="256" height="256" fill="none" viewBox="0 0 256 256"><rect width="256" height="256" fill="#242938" rx="60"/><path fill="#81CD39" d="M119.878 31.1164C124.797 28.3008 131.203 28.2883 136.117 31.1164C160.839 45.0855 185.569 59.0332 210.287 73.0108C214.937 75.6296 218.046 80.8038 217.999 86.1608V170.206C218.034 175.785 214.617 181.083 209.712 183.642C185.071 197.535 160.442 211.444 135.805 225.337C130.786 228.207 124.251 227.986 119.387 224.88C112 220.598 104.6 216.336 97.2121 212.058C95.7022 211.158 94.0004 210.442 92.9345 208.978C93.8766 207.708 95.5618 207.55 96.9309 206.995C100.014 206.014 102.847 204.44 105.679 202.913C106.396 202.423 107.27 202.611 107.957 203.049C114.274 206.671 120.536 210.399 126.874 213.986C128.226 214.767 129.595 213.73 130.751 213.086C154.931 199.419 179.141 185.805 203.318 172.134C204.214 171.703 204.709 170.752 204.636 169.771C204.653 142.046 204.64 114.317 204.645 86.5918C204.747 85.4785 204.103 84.455 203.096 83.999C178.541 70.1702 153.997 56.3205 129.446 42.4882C128.575 41.8893 127.426 41.8878 126.554 42.4837C102.002 56.3205 77.4638 70.1832 52.9124 84.011C51.9092 84.4675 51.236 85.4745 51.3554 86.5918C51.3596 114.317 51.3554 142.046 51.3554 169.775C51.2682 170.756 51.801 171.687 52.6906 172.109C59.2422 175.824 65.8024 179.513 72.3582 183.216C76.0516 185.203 80.5863 186.385 84.6555 184.862C88.2463 183.574 90.7633 179.909 90.6948 176.097C90.7288 148.534 90.6778 120.967 90.7203 93.4078C90.6309 92.1841 91.7912 91.1731 92.981 91.2885C96.1292 91.267 99.281 91.2461 102.429 91.297C103.743 91.267 104.647 92.5847 104.485 93.8174C104.472 121.555 104.519 149.293 104.464 177.03C104.472 184.423 101.435 192.467 94.5973 196.084C86.1737 200.447 75.7619 199.522 67.4399 195.338C60.2355 191.742 53.3603 187.498 46.2838 183.646C41.3661 181.101 37.966 175.782 38.0006 170.207V86.1608C37.949 80.6929 41.1825 75.4248 45.9764 72.8445C70.6133 58.9408 95.2461 45.0261 119.878 31.1164Z"/><path fill="#81CD39" d="M141.372 89.3351C152.117 88.6433 163.62 88.9255 173.289 94.2185C180.776 98.2754 184.926 106.789 185.058 115.106C184.849 116.227 183.676 116.846 182.605 116.769C179.488 116.765 176.369 116.812 173.252 116.748C171.929 116.799 171.161 115.58 170.995 114.411C170.099 110.431 167.928 106.49 164.183 104.57C158.433 101.692 151.767 101.837 145.497 101.897C140.92 102.139 135.998 102.536 132.12 105.227C129.143 107.266 128.239 111.382 129.301 114.697C130.303 117.077 133.05 117.845 135.299 118.553C148.248 121.94 161.97 121.602 174.672 126.059C179.931 127.876 185.075 131.409 186.875 136.915C189.23 144.295 188.198 153.115 182.947 159.039C178.689 163.914 172.488 166.568 166.303 168.009C158.075 169.844 149.536 169.891 141.18 169.076C133.323 168.18 125.146 166.116 119.081 160.763C113.894 156.259 111.361 149.241 111.612 142.469C111.672 141.325 112.811 140.527 113.907 140.621C117.046 140.596 120.186 140.587 123.325 140.626C124.58 140.536 125.509 141.62 125.574 142.802C126.152 146.593 127.577 150.573 130.884 152.82C137.264 156.937 145.271 156.655 152.577 156.77C158.63 156.502 165.425 156.421 170.364 152.42C172.97 150.138 173.742 146.32 173.038 143.036C172.275 140.263 169.374 138.971 166.883 138.126C154.1 134.083 140.224 135.55 127.565 130.977C122.425 129.161 117.455 125.727 115.481 120.447C112.726 112.974 113.988 103.73 119.789 98.0061C125.445 92.312 133.609 90.1192 141.372 89.3346V89.3351"/></svg>
        </g>
         
        <g transform="translate(2100, 0)">
          <svg width="256" height="256" viewBox="0 0 256 256" fill="none" xmlns="http://www.w3.org/2000/svg">
<rect width="256" height="256" rx="60" fill="#242938"/>
<path d="M206.709 91.2411C206.304 90.8108 205.873 90.3804 205.443 89.9753C205.012 89.5703 204.607 89.1146 204.177 88.7095C203.747 88.3044 203.342 87.8487 202.911 87.4437C202.481 87.0386 202.076 86.5829 201.645 86.1778C201.215 85.7728 200.81 85.3171 200.38 84.912C199.949 84.507 199.544 84.0513 199.114 83.6462C198.683 83.2411 198.278 82.7854 197.848 82.3804C210.405 94.7214 217.599 111.51 217.873 129.115C217.873 171.064 175.291 205.191 122.936 205.191C93.6199 205.191 67.392 194.482 49.949 177.697L51.2148 178.963L52.4806 180.229L53.7464 181.494L55.0123 182.76L56.2781 184.026L57.5439 185.292L58.8097 186.558C76.2275 204.051 103.038 215.317 133.063 215.317C185.417 215.317 228 181.191 228 139.368C228 121.494 220.304 104.558 206.709 91.2411Z" fill="black"/>
<path d="M211.544 129.114C211.544 167.62 171.874 198.836 122.937 198.836C74 198.836 34.3291 167.62 34.3291 129.114C34.3291 105.241 49.519 84.1519 72.8608 71.6456C96.2026 59.1392 110.734 46.3291 122.937 46.3291C135.139 46.3291 145.57 56.7848 173.013 71.6456C196.355 84.1519 211.544 105.241 211.544 129.114Z" fill="#FBF0DF"/>
<path d="M211.544 129.114C211.532 124.167 210.851 119.245 209.519 114.481C202.608 198.785 99.7722 202.835 59.3418 177.62C77.5166 191.707 99.9446 199.189 122.937 198.835C171.798 198.835 211.544 167.57 211.544 129.114Z" fill="#F6DECE"/>
<path d="M88.8355 67.0127C100.152 60.2278 115.19 47.4937 129.975 47.4683C127.7 46.7332 125.327 46.349 122.937 46.3291C116.81 46.3291 110.279 49.4937 102.051 54.2532C99.1899 55.924 96.2279 57.7721 93.0887 59.6962C87.1899 63.3418 80.4304 67.4684 72.8355 71.5949C48.7342 84.6329 34.3291 106.127 34.3291 129.114C34.3291 130.127 34.3291 131.139 34.3291 132.127C49.6709 77.9241 77.5443 73.7975 88.8355 67.0127Z" fill="#FFFEFC"/>
<path fill-rule="evenodd" clip-rule="evenodd" d="M115.645 52.7341C115.681 58.7119 114.426 64.6269 111.966 70.0753C109.506 75.5236 105.899 80.3769 101.392 84.3038C100.683 84.9367 101.24 86.1519 102.152 85.7974C110.683 82.481 122.202 72.5569 117.342 52.5316C117.139 51.3924 115.645 51.6962 115.645 52.7341ZM121.392 52.7341C124.49 57.7884 126.458 63.4527 127.162 69.3388C127.865 75.2249 127.287 81.1935 125.468 86.8354C125.164 87.7215 126.253 88.481 126.861 87.7468C132.405 80.6582 137.24 66.5822 122.759 51.3924C122.025 50.7341 120.886 51.7468 121.392 52.6329V52.7341ZM128.38 52.3037C133.231 55.7381 137.289 60.1727 140.28 65.3086C143.272 70.4444 145.127 76.1621 145.721 82.0759C145.696 82.289 145.753 82.5038 145.882 82.6758C146.01 82.8477 146.2 82.9636 146.412 82.9994C146.623 83.0352 146.84 82.9882 147.018 82.8681C147.196 82.748 147.321 82.5641 147.367 82.3544C149.696 73.519 148.38 58.4556 129.215 50.6329C128.202 50.2278 127.544 51.5949 128.38 52.2025V52.3037ZM81.6454 78.6329C87.4157 76.909 92.7583 73.9891 97.3252 70.0634C101.892 66.1377 105.581 61.2941 108.152 55.8481C108.607 54.9367 110.051 55.2911 109.823 56.3037C105.443 76.5569 90.7847 80.7848 81.6708 80.2278C80.7087 80.2531 80.734 78.9114 81.6454 78.6329Z" fill="#CCBEA7"/>
<path d="M122.937 205.19C70.5823 205.19 28 171.063 28 129.114C28 103.798 43.6456 80.1773 69.8481 66.0253C77.4431 61.9747 83.9494 57.8988 89.7469 54.3291C92.9368 52.3544 95.9494 50.5063 98.8608 48.7848C107.747 43.519 115.342 40 122.937 40C130.532 40 137.165 43.038 145.468 47.9494C148 49.3924 150.532 50.962 153.241 52.6836C159.544 56.5823 166.658 60.9874 176.025 66.0253C202.228 80.1773 217.874 103.772 217.874 129.114C217.874 171.063 175.291 205.19 122.937 205.19ZM122.937 46.3291C116.81 46.3291 110.279 49.4937 102.051 54.2532C99.1899 55.9241 96.2279 57.7722 93.0887 59.6962C87.1899 63.3418 80.4304 67.4684 72.8355 71.595C48.7342 84.633 34.3291 106.127 34.3291 129.114C34.3291 167.57 74.076 198.861 122.937 198.861C171.798 198.861 211.544 167.57 211.544 129.114C211.544 106.127 197.139 84.633 173.013 71.6456C163.443 66.5823 155.975 61.8228 149.924 58.076C147.165 56.3798 144.633 54.8101 142.329 53.4177C134.658 48.8608 129.063 46.3291 122.937 46.3291Z" fill="black"/>
<path d="M140.785 147.596C139.648 152.254 137.059 156.429 133.393 159.52C130.64 162.188 127.077 163.863 123.266 164.279C119.341 163.929 115.652 162.25 112.81 159.52C109.181 156.415 106.629 152.241 105.519 147.596C105.482 147.32 105.509 147.039 105.598 146.775C105.686 146.512 105.834 146.272 106.029 146.074C106.225 145.876 106.463 145.725 106.725 145.634C106.988 145.542 107.268 145.512 107.544 145.545H138.785C139.059 145.516 139.337 145.549 139.596 145.643C139.855 145.736 140.09 145.887 140.283 146.085C140.475 146.282 140.621 146.521 140.708 146.782C140.795 147.044 140.821 147.322 140.785 147.596Z" fill="#B71422"/>
<path d="M112.81 159.722C115.647 162.453 119.322 164.148 123.241 164.532C127.151 164.142 130.816 162.448 133.646 159.722C134.551 158.878 135.397 157.973 136.177 157.013C134.618 155.243 132.713 153.812 130.579 152.806C128.446 151.8 126.13 151.242 123.772 151.165C121.25 151.224 118.78 151.896 116.575 153.122C114.37 154.348 112.496 156.092 111.114 158.203C111.696 158.734 112.203 159.241 112.81 159.722Z" fill="#FF6164"/>
<path d="M113.215 157.722C114.471 156.099 116.077 154.783 117.914 153.871C119.752 152.958 121.772 152.475 123.823 152.456C127.614 152.568 131.227 154.094 133.95 156.734C134.532 156.101 135.089 155.443 135.62 154.785C132.4 151.718 128.143 149.974 123.696 149.899C121.32 149.919 118.977 150.466 116.837 151.499C114.696 152.532 112.811 154.026 111.317 155.874C111.915 156.524 112.549 157.141 113.215 157.722Z" fill="black"/>
<path d="M123.165 165.798C118.946 165.428 114.976 163.644 111.899 160.734C107.98 157.42 105.222 152.941 104.026 147.95C103.94 147.505 103.954 147.047 104.068 146.609C104.182 146.171 104.392 145.764 104.684 145.418C105.031 144.999 105.469 144.665 105.965 144.441C106.46 144.217 107.001 144.11 107.545 144.127H138.785C139.328 144.115 139.867 144.225 140.361 144.449C140.856 144.672 141.295 145.003 141.646 145.418C141.934 145.765 142.141 146.173 142.251 146.612C142.36 147.05 142.37 147.507 142.279 147.95C141.083 152.941 138.324 157.42 134.405 160.734C131.335 163.639 127.375 165.422 123.165 165.798ZM107.545 147.063C107.139 147.063 107.038 147.241 107.013 147.291C108.083 151.62 110.504 155.495 113.924 158.355C116.425 160.819 119.677 162.378 123.165 162.785C126.643 162.382 129.891 160.843 132.405 158.405C135.815 155.54 138.226 151.666 139.291 147.342C139.236 147.261 139.16 147.197 139.07 147.157C138.981 147.116 138.882 147.102 138.785 147.114L107.545 147.063Z" fill="black"/>
<path d="M161.469 149.164C169.648 149.164 176.279 145.265 176.279 140.455C176.279 135.646 169.648 131.747 161.469 131.747C153.289 131.747 146.659 135.646 146.659 140.455C146.659 145.265 153.289 149.164 161.469 149.164Z" fill="#FEBBD0"/>
<path d="M84.8358 149.164C93.0152 149.164 99.6459 145.265 99.6459 140.455C99.6459 135.646 93.0152 131.747 84.8358 131.747C76.6564 131.747 70.0256 135.646 70.0256 140.455C70.0256 145.265 76.6564 149.164 84.8358 149.164Z" fill="#FEBBD0"/>
<path fill-rule="evenodd" clip-rule="evenodd" d="M91.7978 136.962C94.5578 136.967 97.2573 136.153 99.5546 134.623C101.852 133.093 103.644 130.917 104.703 128.368C105.763 125.82 106.043 123.014 105.508 120.307C104.972 117.599 103.646 115.111 101.696 113.158C99.746 111.204 97.2605 109.873 94.5539 109.333C91.8473 108.793 89.0412 109.067 86.4908 110.122C83.9404 111.177 81.7603 112.965 80.2264 115.26C78.6925 117.554 77.8738 120.252 77.8738 123.012C77.8738 126.708 79.34 130.252 81.9505 132.867C84.561 135.482 88.1026 136.955 91.7978 136.962ZM154.507 136.962C157.27 136.982 159.977 136.181 162.284 134.66C164.591 133.14 166.395 130.968 167.466 128.421C168.538 125.874 168.828 123.066 168.302 120.354C167.775 117.641 166.454 115.146 164.508 113.185C162.561 111.224 160.076 109.885 157.367 109.339C154.658 108.792 151.848 109.063 149.293 110.115C146.739 111.168 144.554 112.956 143.017 115.252C141.479 117.548 140.659 120.249 140.659 123.012C140.652 126.697 142.105 130.233 144.701 132.848C147.297 135.462 150.823 136.942 154.507 136.962Z" fill="black"/>
<path fill-rule="evenodd" clip-rule="evenodd" d="M87.494 123.898C88.5315 123.903 89.5472 123.6 90.4123 123.028C91.2775 122.455 91.9531 121.638 92.3536 120.681C92.7541 119.724 92.8615 118.669 92.6622 117.651C92.4629 116.633 91.9658 115.697 91.2339 114.961C90.502 114.226 89.5683 113.724 88.551 113.52C87.5338 113.316 86.4788 113.418 85.5198 113.814C84.5607 114.21 83.7407 114.882 83.1638 115.744C82.5868 116.606 82.2788 117.62 82.2788 118.658C82.2788 120.043 82.8274 121.373 83.8048 122.355C84.7821 123.337 86.1085 123.892 87.494 123.898ZM150.203 123.898C151.24 123.903 152.256 123.6 153.121 123.028C153.986 122.455 154.662 121.638 155.063 120.681C155.463 119.724 155.57 118.669 155.371 117.651C155.172 116.633 154.675 115.697 153.943 114.961C153.211 114.226 152.277 113.724 151.26 113.52C150.243 113.316 149.188 113.418 148.229 113.814C147.27 114.21 146.45 114.882 145.873 115.744C145.296 116.606 144.988 117.62 144.988 118.658C144.988 120.035 145.529 121.356 146.496 122.337C147.462 123.318 148.776 123.878 150.152 123.898H150.203Z" fill="white"/>
</svg>

        </g>
        
  </svg>
  